<svg width="774" height="774" viewBox="0 0 774 774" fill="none" xmlns="http://www.w3.org/2000/svg">
<path d="M774 387C774 600.734 600.734 774 387 774C173.266 774 0 600.734 0 387C0 173.266 173.266 0 387 0C600.734 0 774 173.266 774 387Z" fill="#232220"/>
<circle cx="387.5" cy="387.5" r="320" fill="white"/>
<path d="M483.9 583.5L483.3 575.1C482.9 566.7 479.7 562.5 473.7 562.5C470.5 562.5 464.7 564.7 456.3 569.1C430.3 583.5 404.1 590.7 377.7 590.7C327.3 590.7 285.9 573.3 253.5 538.5C221.5 503.7 205.5 455.9 205.5 395.1C205.5 333.9 221.3 285.9 252.9 251.1C284.9 215.9 326.5 198.3 377.7 198.3C403.7 198.3 429.7 204.9 455.7 218.1C464.1 222.5 470.1 224.7 473.7 224.7C479.7 224.7 482.9 220.5 483.3 212.1L483.9 201.9H495.3V305.7H484.5C480.9 274.9 469.3 252.3 449.7 237.9C430.5 223.1 406.5 215.7 377.7 215.7C341.3 215.7 311.9 231.7 289.5 263.7C267.5 295.7 256.5 339.5 256.5 395.1C256.5 450.7 267.7 494.3 290.1 525.9C312.5 557.5 341.7 573.3 377.7 573.3C406.5 573.3 430.5 566.1 449.7 551.7C469.3 536.9 480.9 514.1 484.5 483.3H495.3V583.5H483.9Z" fill="black"/>
<circle cx="387" cy="387" r="29.5" fill="black"/>
<rect x="281.822" y="320.864" width="19" height="124" transform="rotate(-55 281.822 320.864)" fill="black"/>
<rect x="575.569" y="273.506" width="15" height="200" transform="rotate(60 575.569 273.506)" fill="black"/>
<path d="M377.5 273.5H397.5L388.045 653.5L377.5 273.5Z" fill="black"/>
</svg>
